HIERARCHY
ROOT Hips
{
	OFFSET 0.00000 0.00000 0.00000
	CHANNELS 6 Xposition Yposition Zposition Zrotation Yrotation Xrotation 
	JOINT LHipJoint
	{
		OFFSET 0 0 0
		CHANNELS 3 Zrotation Yrotation Xrotation
		JOINT LeftUpLeg
		{
			OFFSET 1.53794 -1.55850 0.93568
			CHANNELS 3 Zrotation Yrotation Xrotation
			JOINT LeftLeg
			{
				OFFSET 2.28545 -6.27922 0.00000
				CHANNELS 3 Zrotation Yrotation Xrotation
				JOINT LeftFoot
				{
					OFFSET 2.37329 -6.52057 0.00000
					CHANNELS 3 Zrotation Yrotation Xrotation
					JOINT LeftToeBase
					{
						OFFSET 0.14846 -0.40788 2.09160
						CHANNELS 3 Zrotation Yrotation Xrotation
						End Site
						{
							OFFSET 0.00000 -0.00000 1.07536
						}
					}
				}
			}
		}
	}
	JOINT RHipJoint
	{
		OFFSET 0 0 0
		CHANNELS 3 Zrotation Yrotation Xrotation
		JOINT RightUpLeg
		{
			OFFSET -1.78290 -1.55850 0.93568
			CHANNELS 3 Zrotation Yrotation Xrotation
			JOINT RightLeg
			{
				OFFSET -2.24144 -6.15831 0.00000
				CHANNELS 3 Zrotation Yrotation Xrotation
				JOINT RightFoot
				{
					OFFSET -2.35091 -6.45907 0.00000
					CHANNELS 3 Zrotation Yrotation Xrotation
					JOINT RightToeBase
					{
						OFFSET -0.14428 -0.39641 2.07944
						CHANNELS 3 Zrotation Yrotation Xrotation
						End Site
						{
							OFFSET -0.00000 -0.00000 1.06864
						}
					}
				}
			}
		}
	}
	JOINT LowerBack
	{
		OFFSET 0 0 0
		CHANNELS 3 Zrotation Yrotation Xrotation
		JOINT Spine
		{
			OFFSET -0.08841 2.11430 -0.15818
			CHANNELS 3 Zrotation Yrotation Xrotation
			JOINT Spine1
			{
				OFFSET -0.00033 2.12605 -0.08097
				CHANNELS 3 Zrotation Yrotation Xrotation
				JOINT Neck
				{
					OFFSET 0 0 0
					CHANNELS 3 Zrotation Yrotation Xrotation
					JOINT Neck1
					{
						OFFSET 0.04431 1.59447 0.43193
						CHANNELS 3 Zrotation Yrotation Xrotation
						JOINT Head
						{
							OFFSET 0.00455 1.62017 -0.58852
							CHANNELS 3 Zrotation Yrotation Xrotation
							End Site
							{
								OFFSET -0.00920 1.72955 -0.25850
							}
						}
					}
				}
				JOINT LeftShoulder
				{
					OFFSET 0 0 0
					CHANNELS 3 Zrotation Yrotation Xrotation
					JOINT LeftArm
					{
						OFFSET 2.86490 1.49927 -0.33774
						CHANNELS 3 Zrotation Yrotation Xrotation
						JOINT LeftForeArm
						{
							OFFSET 4.87408 -0.00000 0.00000
							CHANNELS 3 Zrotation Yrotation Xrotation
							JOINT LeftHand
							{
								OFFSET 2.76729 -0.00000 0.00000
								CHANNELS 3 Zrotation Yrotation Xrotation
								JOINT LeftFingerBase
								{
									OFFSET 0 0 0
									CHANNELS 3 Zrotation Yrotation Xrotation
									JOINT LeftHandIndex1
									{
										OFFSET 0.98922 -0.00000 0.00000
										CHANNELS 3 Zrotation Yrotation Xrotation
										End Site
										{
											OFFSET 0.79753 -0.00000 0.00000
										}
									}
								}
								JOINT LThumb
								{
									OFFSET 0 0 0
									CHANNELS 3 Zrotation Yrotation Xrotation
									End Site
									{
										OFFSET 0.80972 -0.00000 0.80972
									}
								}
							}
						}
					}
				}
				JOINT RightShoulder
				{
					OFFSET 0 0 0
					CHANNELS 3 Zrotation Yrotation Xrotation
					JOINT RightArm
					{
						OFFSET -2.94414 1.45463 -0.25291
						CHANNELS 3 Zrotation Yrotation Xrotation
						JOINT RightForeArm
						{
							OFFSET -4.71404 -0.00000 0.00000
							CHANNELS 3 Zrotation Yrotation Xrotation
							JOINT RightHand
							{
								OFFSET -2.83468 -0.00000 0.00000
								CHANNELS 3 Zrotation Yrotation Xrotation
								JOINT RightFingerBase
								{
									OFFSET 0 0 0
									CHANNELS 3 Zrotation Yrotation Xrotation
									JOINT RightHandIndex1
									{
										OFFSET -0.86820 -0.00000 0.00000
										CHANNELS 3 Zrotation Yrotation Xrotation
										End Site
										{
											OFFSET -0.69996 -0.00000 0.00000
										}
									}
								}
								JOINT RThumb
								{
									OFFSET 0 0 0
									CHANNELS 3 Zrotation Yrotation Xrotation
									End Site
									{
										OFFSET -0.71065 -0.00000 0.71065
									}
								}
							}
						}
					}
				}
			}
		}
	}
}
MOTION
Frames: 9
Frame Time: .0083333
1.5155 16.3726 24.9848 0 0 0 0 0 0 -21 0 0 0 0 0 0 0 0 0 0 0 0 0 0 21 0 0 0 0 0 0 0 0 0 0 0 0 0 0 0 0 0 0 0 0 0 0 -16 0 0 21 0 0 11 0 0 0 -8 0 0 0 0 0 0 0 0 0 0 0 0 0 0 0 0 0 0 0 0 8 0 0 0 0 0 0 0 0 0 0 0 0 0 0 0 0 0
1.5155 16.3726 24.9848 179.3060 -1.2081 -169.0510 0.0000 0.0000 0.0000 -16.2732 -16.2463 -32.3510 2.2420 9.3529 26.9055 0.3982 10.0419 12.3787 0.0709 -1.7176 -4.7257 0.0000 0.0000 0.0000 24.5698 -0.9166 7.1472 -3.5820 -11.5824 34.2701 -1.7449 -23.2598 26.9267 -0.3163 3.6153 -9.9967 -2.0754 5.4721 -4.3157 -1.9206 7.4199 0.2265 -0.3414 3.6662 2.6314 -2.7781 -3.9941 -36.7143 2.9697 -9.1103 41.4670 -1.0133 -3.7816 26.0733 -0.0000 -0.0000 0.0000 -62.5443 29.2200 63.0760 125.0748 -54.7986 -89.8451 -0.0000 -0.0000 17.6595 11.1113 2.6937 0.5288 -7.1250 0.0000 -0.0000 -12.4771 32.5463 3.8852 -0.0000 -0.0000 0.0000 78.4052 -9.5615 63.7757 -124.4684 54.9966 -89.3490 0.0000 0.0000 5.7629 -11.7541 1.0468 -0.2178 7.1250 -0.0000 -0.0000 11.4961 -28.8266 4.6135
1.4981 16.2423 24.6423 179.2810 -1.4531 -169.6210 0.0000 0.0000 0.0000 -17.1829 -15.5177 -31.2026 2.6125 10.0397 29.1055 0.1320 10.4399 9.2673 0.0340 -1.1895 -3.2703 0.0000 0.0000 0.0000 24.4597 -1.1429 5.8423 -4.4973 -12.7943 38.6034 -1.2873 -22.9433 24.3041 -0.3451 3.7746 -10.4434 -2.0760 5.1423 -3.8779 -1.7825 6.9719 0.4190 -0.2605 3.4448 2.5698 -2.5504 -3.7455 -36.7352 2.7478 -8.6491 41.3327 -1.0244 -3.6169 25.8482 0.0000 -0.0000 0.0000 -63.3406 28.7913 63.0760 124.9709 -54.8329 -89.7602 -0.0000 -0.0000 16.8692 11.1432 3.1932 0.6286 -7.1250 0.0000 -0.0000 -12.5268 33.0441 3.7470 0.0000 -0.0000 0.0000 78.2095 -10.7966 63.8298 -123.7148 55.2359 -88.7308 0.0000 0.0000 5.3790 -12.4947 0.7213 -0.1598 7.1250 -0.0000 -0.0000 10.9611 -29.1596 4.3029
1.4792 16.1288 24.2999 179.2080 -1.7189 -170.2360 0.0000 0.0000 0.0000 -17.9822 -14.8805 -30.0752 2.9816 10.6652 31.1590 -0.0919 10.5659 5.8512 0.0926 -1.9622 -5.4013 0.0000 0.0000 0.0000 24.2403 -1.4378 4.6736 -5.3969 -13.8173 42.5104 -0.8838 -22.8310 21.9012 -0.4131 4.1255 -11.4301 -2.1490 4.8364 -3.3296 -1.6503 6.5514 0.5446 -0.1545 3.2369 2.3715 -2.6597 -3.5656 -36.4078 2.8073 -8.3420 41.3302 -0.8631 -3.5521 25.7167 -0.0000 0.0000 0.0000 -64.0575 28.2562 63.2067 124.4152 -55.0138 -89.3054 -0.0000 -0.0000 16.7053 11.4479 3.4066 0.6894 -7.1250 0.0000 -0.0000 -12.3158 33.2678 3.6132 -0.0000 0.0000 0.0000 78.1424 -12.2696 63.4670 -122.9661 55.4663 -88.1149 0.0000 0.0000 3.8008 -12.4329 0.2737 -0.0603 7.1250 -0.0000 -0.0000 11.0575 -29.6088 4.2215
1.4619 16.0551 23.9460 178.7080 -1.9313 -170.6350 0.0000 0.0000 0.0000 -18.9183 -15.1887 -28.9258 3.3323 11.2145 33.0068 -0.2926 12.0898 3.5088 0.0791 -1.8138 -4.9913 0.0000 0.0000 0.0000 23.4489 -1.6081 3.1230 -6.3169 -14.7286 46.2406 -0.6159 -22.7082 20.1810 -0.4327 4.2212 -11.6999 -2.4762 4.5427 -2.8552 -1.8922 6.1489 0.5607 -0.2825 3.0313 2.1187 -2.4905 -3.4281 -36.0328 3.0233 -8.3214 41.1247 -0.7436 -3.5053 25.3689 -0.0000 -0.0000 0.0000 -64.5117 27.4451 63.3803 123.5330 -55.2925 -88.5815 -0.0000 -0.0000 16.8333 11.6780 3.3704 0.6962 -7.1250 0.0000 -0.0000 -12.1263 33.2402 3.5637 -0.0000 -0.0000 0.0000 78.9813 -14.2440 62.3924 -120.9618 56.0482 -86.4579 0.0000 0.0000 4.6581 -13.0086 -0.0327 0.0076 7.1250 -0.0000 -0.0000 10.6443 -29.9248 3.9769
1.4460 15.9543 23.6021 178.2710 -2.1141 -171.0810 0.0000 0.0000 0.0000 -19.8958 -15.1029 -27.6815 3.6630 11.6979 34.6715 -0.4667 13.2191 1.0613 0.0783 -1.8052 -4.9676 0.0000 0.0000 0.0000 22.7369 -1.7726 1.7177 -7.2805 -15.5636 49.9272 -0.3661 -22.3949 18.3655 -0.4678 4.3868 -12.1676 -2.8330 4.3050 -2.3902 -2.0639 5.8183 0.6398 -0.3109 2.8600 1.9257 -2.3088 -3.3036 -35.7395 3.1492 -8.2801 40.9512 -0.6773 -3.4567 25.0783 0.0000 0.0000 0.0000 -64.9732 26.5249 63.6777 122.7182 -55.5410 -87.9106 -0.0000 -0.0000 16.6322 11.9361 3.4596 0.7309 -7.1250 0.0000 -0.0000 -11.9329 33.3389 3.4755 0.0000 0.0000 0.0000 79.6561 -16.0539 61.2319 -119.2139 56.5158 -85.0041 0.0000 0.0000 4.7187 -13.3097 -0.3473 0.0822 7.1250 -0.0000 -0.0000 10.4440 -30.2468 3.8181
1.4327 15.8609 23.2602 177.6870 -2.2370 -171.4840 0.0000 0.0000 0.0000 -21.0032 -14.9965 -26.3541 3.9439 12.0853 36.0346 -0.6233 14.3553 -1.1723 0.0825 -1.8522 -5.0974 0.0000 0.0000 0.0000 21.8244 -1.8509 0.1725 -8.2879 -16.3269 53.5930 -0.1606 -21.9837 16.6724 -0.5030 4.5467 -12.6202 -3.4144 4.0379 -1.9444 -2.2281 5.4479 0.7575 -0.2024 2.6634 1.7640 -2.1556 -3.1597 -35.4788 3.2833 -8.1502 40.7004 -0.5709 -3.3767 24.7295 -0.0000 0.0000 0.0000 -65.7112 25.4438 63.8082 121.6794 -55.8456 -87.0525 -0.0000 -0.0000 16.5601 12.2459 3.4824 0.7553 -7.1250 0.0000 -0.0000 -11.6878 33.3732 3.3916 -0.0000 0.0000 0.0000 80.3236 -17.8172 59.8633 -117.0409 57.0482 -83.1861 0.0000 0.0000 4.9373 -13.5681 -0.6882 0.1661 7.1250 -0.0000 -0.0000 10.2795 -30.5958 3.6690
1.4229 15.7732 22.9221 176.9700 -2.2794 -171.8490 0.0000 0.0000 0.0000 -22.2376 -14.7794 -24.9618 4.1749 12.3896 37.1244 -0.7632 15.4427 -3.1564 0.0838 -1.8671 -5.1386 0.0000 0.0000 0.0000 20.7361 -1.8084 -1.5330 -9.3493 -17.0273 57.2903 0.0198 -21.5047 14.9956 -0.5364 4.6929 -13.0346 -4.2074 3.7547 -1.5069 -2.3892 5.0514 0.9183 0.0318 2.4478 1.6385 -2.0619 -3.0131 -35.2730 3.4536 -7.9647 40.3895 -0.4165 -3.2769 24.3604 0.0000 -0.0000 0.0000 -66.6936 24.1927 63.7853 120.4792 -56.1809 -86.0573 -0.0000 -0.0000 16.5879 12.5859 3.5199 0.7853 -7.1250 0.0000 -0.0000 -11.4202 33.4234 3.2971 0.0000 -0.0000 0.0000 80.9652 -19.4925 58.3192 -114.4191 57.6224 -80.9787 0.0000 0.0000 5.2572 -13.8597 -1.1041 0.2724 7.1250 -0.0000 -0.0000 10.0968 -31.0226 3.4971
1.4172 15.6913 22.5893 176.1650 -2.2258 -172.1830 0.0000 0.0000 0.0000 -23.5524 -14.3686 -23.5113 4.3454 12.6063 37.9121 -0.8832 16.4068 -4.9135 0.0880 -1.9130 -5.2654 0.0000 0.0000 0.0000 19.5252 -1.6339 -3.3791 -10.4421 -17.6511 60.9560 0.1885 -21.0173 13.2679 -0.5820 4.8851 -13.5811 -5.1747 3.4698 -1.0815 -2.5306 4.6460 1.1310 0.3890 2.2210 1.5666 -2.0081 -2.8605 -35.1489 3.6386 -7.7171 40.0156 -0.2293 -3.1515 23.9750 0.0000 0.0000 0.0000 -67.8976 22.7672 63.6307 119.1909 -56.5217 -84.9849 -0.0000 -0.0000 16.7123 12.9406 3.6358 0.8348 -7.1250 0.0000 -0.0000 -11.1517 33.5533 3.1812 0.0000 0.0000 0.0000 81.5304 -21.0281 56.6227 -111.3703 58.2021 -78.3955 0.0000 0.0000 5.5527 -14.1765 -1.6086 0.4063 7.1250 -0.0000 -0.0000 9.9039 -31.5415 3.3032
